<svg xmlns="http://www.w3.org/2000/svg" width="140" height="140" fill="none" viewBox="0 0 140 140"><g clip-path="url(#clip0_209_138)"><path fill="#01000D" d="M139.5 70C139.5 31.6162 108.384 0.5 70 0.5C31.6162 0.5 0.5 31.6162 0.5 70C0.5 108.384 31.6162 139.5 70 139.5C108.384 139.5 139.5 108.384 139.5 70Z"/><path stroke="#0D0840" d="M139.5 70C139.5 31.6162 108.384 0.5 70 0.5C31.6162 0.5 0.5 31.6162 0.5 70C0.5 108.384 31.6162 139.5 70 139.5C108.384 139.5 139.5 108.384 139.5 70Z"/><path fill="#5750A6" fill-rule="evenodd" stroke="#0D0840" d="M87.6784 87.6747C80.038 95.3159 68.7244 96.9667 59.466 92.685C58.0993 92.1348 56.9787 91.69 55.9134 91.69C52.9462 91.7076 49.2529 94.5847 47.3334 92.6675C45.4139 90.7477 48.2932 87.0515 48.2932 84.0664C48.2932 83.001 47.866 81.9004 47.3158 80.531C43.0321 71.2741 44.6853 59.9567 52.3256 52.318C62.079 42.5611 77.925 42.5611 87.6784 52.3155C97.4493 62.0875 97.4317 77.9202 87.6784 87.6747Z" clip-rule="evenodd"/><path stroke="#8B8D97" d="M79.8486 71.0325H79.8711"/><path stroke="#8B8D97" d="M69.8262 71.0325H69.8487"/><path stroke="#8B8D97" d="M59.8037 71.0325H59.8262"/></g><defs><clipPath id="clip0_209_138"><rect width="140" height="140" fill="#fff"/></clipPath></defs></svg>