<svg xmlns="http://www.w3.org/2000/svg" width="309" height="261" fill="none" viewBox="0 0 309 261"><path fill="#5750A6" d="M29.4594 250.506V215.592H43.5707C43.9101 215.592 44.3304 215.608 44.8315 215.64C45.3326 215.656 45.8094 215.705 46.262 215.786C48.2017 216.093 49.8181 216.756 51.1112 217.774C52.4205 218.792 53.3985 220.077 54.045 221.629C54.6916 223.181 55.0149 224.894 55.0149 226.769C55.0149 228.66 54.6916 230.382 54.045 231.934C53.3985 233.485 52.4205 234.77 51.1112 235.789C49.8181 236.807 48.2017 237.47 46.262 237.777C45.8094 237.842 45.3245 237.89 44.8072 237.923C44.3062 237.955 43.894 237.971 43.5707 237.971H34.5269V250.506H29.4594ZM34.5269 233.17H43.3767C43.7 233.17 44.0556 233.154 44.4435 233.122C44.8477 233.089 45.2275 233.033 45.5831 232.952C46.6176 232.71 47.4501 232.265 48.0805 231.618C48.7109 230.956 49.1635 230.196 49.4383 229.339C49.7131 228.483 49.8504 227.626 49.8504 226.769C49.8504 225.913 49.7131 225.064 49.4383 224.223C49.1635 223.367 48.7109 222.615 48.0805 221.969C47.4501 221.306 46.6176 220.853 45.5831 220.611C45.2275 220.514 44.8477 220.449 44.4435 220.417C44.0556 220.384 43.7 220.368 43.3767 220.368H34.5269V233.17ZM73.464 251.234C69.9725 251.234 66.9983 250.474 64.5414 248.955C62.0844 247.419 60.2013 245.285 58.892 242.554C57.5989 239.822 56.9523 236.654 56.9523 233.049C56.9523 229.444 57.5989 226.276 58.892 223.545C60.2013 220.813 62.0844 218.687 64.5414 217.168C66.9983 215.632 69.9725 214.864 73.464 214.864C76.9392 214.864 79.9054 215.632 82.3623 217.168C84.8354 218.687 86.7185 220.813 88.0117 223.545C89.3048 226.276 89.9514 229.444 89.9514 233.049C89.9514 236.654 89.3048 239.822 88.0117 242.554C86.7185 245.285 84.8354 247.419 82.3623 248.955C79.9054 250.474 76.9392 251.234 73.464 251.234ZM73.464 246.409C75.9371 246.441 77.9899 245.899 79.6225 244.784C81.2712 243.653 82.5078 242.085 83.3322 240.08C84.1565 238.06 84.5687 235.716 84.5687 233.049C84.5687 230.382 84.1565 228.054 83.3322 226.066C82.5078 224.062 81.2712 222.502 79.6225 221.387C77.9899 220.271 75.9371 219.706 73.464 219.689C70.9908 219.657 68.9299 220.199 67.2812 221.314C65.6486 222.429 64.4201 223.997 63.5958 226.018C62.7714 228.038 62.3511 230.382 62.335 233.049C62.3188 235.716 62.7229 238.052 63.5473 240.056C64.3716 242.044 65.6082 243.596 67.2569 244.711C68.9218 245.827 70.9908 246.393 73.464 246.409ZM108.39 251.234C104.898 251.234 101.924 250.474 99.4672 248.955C97.0103 247.419 95.1272 245.285 93.8179 242.554C92.5247 239.822 91.8782 236.654 91.8782 233.049C91.8782 229.444 92.5247 226.276 93.8179 223.545C95.1272 220.813 97.0103 218.687 99.4672 217.168C101.924 215.632 104.898 214.864 108.39 214.864C111.865 214.864 114.831 215.632 117.288 217.168C119.761 218.687 121.644 220.813 122.938 223.545C124.231 226.276 124.877 229.444 124.877 233.049C124.877 236.654 124.231 239.822 122.938 242.554C121.644 245.285 119.761 247.419 117.288 248.955C114.831 250.474 111.865 251.234 108.39 251.234ZM108.39 246.409C110.863 246.441 112.916 245.899 114.548 244.784C116.197 243.653 117.434 242.085 118.258 240.08C119.082 238.06 119.495 235.716 119.495 233.049C119.495 230.382 119.082 228.054 118.258 226.066C117.434 224.062 116.197 222.502 114.548 221.387C112.916 220.271 110.863 219.706 108.39 219.689C105.917 219.657 103.856 220.199 102.207 221.314C100.574 222.429 99.346 223.997 98.5216 226.018C97.6973 228.038 97.277 230.382 97.2608 233.049C97.2447 235.716 97.6488 238.052 98.4731 240.056C99.2975 242.044 100.534 243.596 102.183 244.711C103.848 245.827 105.917 246.393 108.39 246.409ZM128.744 250.506V215.592H133.884L151.074 241.535V215.592H156.215V250.506H151.074L133.884 224.539V250.506H128.744ZM176.293 251.234C173.949 251.234 171.791 250.83 169.819 250.021C167.847 249.197 166.134 248.001 164.679 246.433C163.224 244.865 162.093 242.958 161.285 240.711C160.477 238.464 160.072 235.91 160.072 233.049C160.072 229.283 160.759 226.05 162.133 223.351C163.507 220.635 165.415 218.55 167.855 217.095C170.296 215.624 173.109 214.889 176.293 214.889C180.399 214.889 183.672 215.842 186.113 217.75C188.57 219.657 190.243 222.292 191.132 225.654L185.992 226.575C185.28 224.49 184.133 222.825 182.549 221.581C180.965 220.336 178.976 219.706 176.584 219.689C174.111 219.673 172.05 220.223 170.401 221.338C168.769 222.453 167.54 224.021 166.716 226.042C165.892 228.046 165.471 230.382 165.455 233.049C165.439 235.716 165.843 238.052 166.667 240.056C167.492 242.044 168.728 243.596 170.377 244.711C172.042 245.827 174.111 246.393 176.584 246.409C178.572 246.441 180.278 246.077 181.7 245.318C183.139 244.542 184.278 243.41 185.119 241.923C185.959 240.436 186.501 238.609 186.743 236.443H179.954V232.37H192.126C192.158 232.661 192.182 233.049 192.199 233.534C192.215 234.003 192.223 234.302 192.223 234.431C192.223 237.664 191.601 240.549 190.356 243.087C189.111 245.625 187.301 247.621 184.925 249.076C182.549 250.514 179.671 251.234 176.293 251.234ZM196.086 250.506V215.592H218.392V220.368H201.153V230.164H215.483V234.94H201.153V245.73H218.392V250.506H196.086ZM223.245 250.506V215.592H237.356C237.696 215.592 238.116 215.608 238.617 215.64C239.118 215.656 239.595 215.705 240.048 215.786C241.987 216.093 243.604 216.756 244.897 217.774C246.206 218.792 247.184 220.077 247.831 221.629C248.477 223.181 248.801 224.894 248.801 226.769C248.801 229.549 248.089 231.95 246.667 233.97C245.245 235.975 243.111 237.227 240.266 237.729L238.205 237.971H228.313V250.506H223.245ZM243.66 250.506L236.775 236.298L241.89 234.989L249.455 250.506H243.66ZM228.313 233.17H237.162C237.486 233.17 237.841 233.154 238.229 233.122C238.633 233.089 239.013 233.033 239.369 232.952C240.403 232.71 241.236 232.265 241.866 231.618C242.497 230.956 242.949 230.196 243.224 229.339C243.499 228.483 243.636 227.626 243.636 226.769C243.636 225.913 243.499 225.064 243.224 224.223C242.949 223.367 242.497 222.615 241.866 221.969C241.236 221.306 240.403 220.853 239.369 220.611C239.013 220.514 238.633 220.449 238.229 220.417C237.841 220.384 237.486 220.368 237.162 220.368H228.313V233.17ZM266.471 251.234C263.965 251.234 261.702 250.805 259.682 249.949C257.677 249.076 256.021 247.839 254.711 246.239C253.418 244.623 252.578 242.707 252.19 240.493L257.475 239.692C258.009 241.826 259.124 243.491 260.821 244.687C262.519 245.867 264.499 246.457 266.762 246.457C268.168 246.457 269.461 246.239 270.641 245.803C271.821 245.35 272.767 244.711 273.478 243.887C274.205 243.047 274.569 242.044 274.569 240.881C274.569 240.25 274.456 239.692 274.23 239.208C274.019 238.723 273.72 238.302 273.332 237.947C272.961 237.575 272.5 237.26 271.95 237.001C271.417 236.726 270.827 236.492 270.18 236.298L261.234 233.655C260.361 233.397 259.472 233.065 258.567 232.661C257.661 232.241 256.829 231.699 256.069 231.037C255.326 230.358 254.719 229.525 254.251 228.539C253.782 227.537 253.548 226.325 253.548 224.902C253.548 222.752 254.097 220.934 255.196 219.447C256.312 217.944 257.815 216.812 259.706 216.052C261.597 215.277 263.715 214.889 266.059 214.889C268.419 214.921 270.528 215.341 272.387 216.149C274.262 216.958 275.814 218.121 277.042 219.641C278.287 221.144 279.143 222.971 279.612 225.121L274.181 226.042C273.939 224.733 273.421 223.609 272.629 222.672C271.837 221.718 270.867 220.991 269.72 220.489C268.572 219.972 267.327 219.706 265.986 219.689C264.693 219.657 263.505 219.851 262.422 220.271C261.355 220.692 260.498 221.282 259.852 222.041C259.221 222.801 258.906 223.674 258.906 224.66C258.906 225.63 259.189 226.414 259.755 227.012C260.32 227.61 261.015 228.087 261.84 228.442C262.68 228.782 263.513 229.065 264.337 229.291L270.787 231.109C271.595 231.336 272.508 231.643 273.526 232.031C274.561 232.402 275.555 232.928 276.509 233.607C277.479 234.286 278.279 235.191 278.909 236.322C279.539 237.438 279.855 238.844 279.855 240.541C279.855 242.303 279.499 243.855 278.788 245.196C278.077 246.522 277.099 247.637 275.854 248.542C274.626 249.431 273.203 250.102 271.587 250.555C269.97 251.007 268.265 251.234 266.471 251.234Z"/><path fill="#5750A6" d="M154.094 119.298C168.012 119.298 178.947 130.234 178.947 144.152C178.947 158.07 168.012 169.006 154.094 169.006C140.175 169.006 129.24 158.07 129.24 144.152C129.24 130.234 140.175 119.298 154.094 119.298ZM39.7661 129.24C39.7661 129.24 49.7076 139.181 49.7076 149.123V183.918C49.7076 191.871 56.6667 198.83 64.6199 198.83C72.5731 198.83 79.5322 191.871 79.5322 183.918V149.123C79.5322 139.181 89.4737 129.24 89.4737 129.24H39.7661ZM49.7076 119.298H79.5322C79.5322 119.298 129.24 119.298 129.24 69.5906C129.24 19.883 89.4737 0 64.6199 0C39.7661 0 0 19.883 0 69.5906C0 119.298 49.7076 119.298 49.7076 119.298Z"/><path fill="#5750A6" d="M219.215 129.24C219.215 129.24 229.156 139.181 229.156 149.123V183.918C229.156 191.871 236.115 198.83 244.069 198.83C252.022 198.83 258.981 191.871 258.981 183.918V149.123C258.981 139.181 268.922 129.24 268.922 129.24H219.215ZM229.156 119.298H258.981C258.981 119.298 308.689 119.298 308.689 69.5907C308.689 19.8831 268.922 1.52588e-05 244.069 1.52588e-05C219.215 1.52588e-05 179.449 19.8831 179.449 69.5907C179.449 119.298 229.156 119.298 229.156 119.298Z"/></svg>